<?xml version="1.0" encoding="utf-8"?>
<!-- Generator: Adobe Illustrator 27.5.0, SVG Export Plug-In . SVG Version: 6.00 Build 0)  -->
<svg version="1.1" id="Layer_1" xmlns="http://www.w3.org/2000/svg" xmlns:xlink="http://www.w3.org/1999/xlink" x="0px" y="0px"
	 viewBox="0 0 273.097 191.37" style="enable-background:new 0 0 273.097 191.37;" xml:space="preserve">
<g>
	<g>
		<g>
			<path style="fill:#E1CDBD;" d="M128.359,51.142c0,0-28.723-39.803-116.247-39.577l2.941,15.605l110.366,27.816L128.359,51.142z"
				/>
			<path style="fill:#E1CDBD;" d="M116.711,41.467C72.61,17.105,17.678,18.025,13.322,17.986l1.731,9.184l110.366,27.816l2.94-3.845
				c0,0-0.578-0.798-1.817-2.171C123.505,46.165,120.368,43.487,116.711,41.467z"/>
			<path style="fill:#E1CDBD;" d="M246.923,8.5c-7.068,1.376-14.344,0.204-21.476,0.184c-19.712-0.057-39.601,3.289-57.603,11.498
				c-11.158,5.088-21.824,11.504-30.758,19.973c-2.702,2.561-5.237,5.303-7.61,8.17c-0.812,0.981-1.783,1.971-2.475,3.044
				l5.428,14.249l119.414-22.165l5.652-39.577C254.459,6.311,250.771,7.75,246.923,8.5z"/>
			<path style="fill:#E2D5C0;" d="M154.957,27.117c4.804-2.371,9.653-4.643,14.674-6.524c5.072-1.901,10.257-3.503,15.506-4.839
				c10.511-2.675,21.27-4.336,32.087-5.091c5.175-0.361,10.368-0.55,15.557-0.51c3.109,0.024,6.221,0.108,9.326-0.077
				c5.464-0.33,12.098-1.453,15.34-6.163c-3.026,2.411-6.695,3.841-10.523,4.587c-7.068,1.376-14.344,0.204-21.476,0.184
				c-19.712-0.057-39.601,3.289-57.603,11.498c-5.242,2.391-10.374,5.079-15.271,8.131
				C153.359,27.908,154.153,27.514,154.957,27.117z"/>
			<path style="fill:#E1CDBD;" d="M233.368,14.667c-5.26,0.183-10.545,0.737-15.789,1.194c-5.501,0.479-10.998,1.055-16.449,1.941
				c-10.523,1.715-20.976,4.58-30.99,8.224c-5.081,1.849-10.099,3.945-14.992,6.244c-2.354,1.106-4.703,2.265-6.909,3.645
				c-2.013,1.26-3.989,2.657-6.265,3.405c-0.127,0.041-0.238-0.09-0.209-0.21c0.438-1.76,1.246-3.388,2.271-4.891
				c-2.41,1.86-4.734,3.833-6.95,5.935c-2.702,2.561-5.237,5.303-7.61,8.17c-0.812,0.981-1.783,1.971-2.475,3.044l5.428,14.249
				l119.414-22.165c0,0,2.852-19.964,4.504-31.534C249.446,15.682,240.918,14.404,233.368,14.667z"/>
			<path style="fill:#E1CDBD;" d="M255.721,37.984c0.011-4.151,0.178-8.301,0.435-12.444c0.197-3.158,0.373-6.325,0.831-9.456
				c-86.881-1.497-129.985,35.284-129.985,35.284l5.428,14.249l124.43-10.733C256.015,49.299,255.706,43.632,255.721,37.984z"/>
			<path style="fill:#E1CDBD;" d="M255.721,37.984c0.011-4.151,0.178-8.301,0.435-12.444c0.074-1.175,0.145-2.351,0.228-3.526
				c-0.016,0-0.029-0.003-0.043-0.004c-2.779-0.234-5.557-0.451-8.34-0.63c-11.098-0.71-22.17-0.7-33.233,0.514
				c-10.901,1.198-21.683,3.296-32.332,5.893c-10.505,2.561-20.832,5.58-30.763,9.906c-4.891,2.131-9.745,4.458-14.506,6.869
				c-1.037,0.525-2.036,1.084-3.009,1.681c-0.872,0.565-1.659,1.092-2.372,1.581c-0.349,0.25-0.696,0.506-1.039,0.771
				c-1.237,0.955-2.455,1.933-3.714,2.857l5.395,14.165l124.43-10.733C256.015,49.299,255.706,43.632,255.721,37.984z"/>
			<g>
				<g>
					<path style="fill:#E1CDBD;" d="M125.151,53.82c3.333-0.834,7.14-0.018,10.5,0.773c3.809,0.898,5.576,2.46,8.572,4.966
						c2.254,1.884,4.258,4.128,5.866,6.618l111.032-29.133l-1.036-11.703c-65.577-10.147-132.215,24.35-132.215,24.35
						C70.443,12.604,8.399,20.996,8.399,20.996l-0.141,3.602l4.583,6.854l97.502,32.453
						C112.829,58.957,119.936,55.123,125.151,53.82z"/>
				</g>
				<g>
					<path style="fill:#E1CDBD;" d="M260.086,25.342c-5.812-0.9-11.632-1.447-17.413-1.699c7.971,1.177,14.509,3.075,7.393,3.709
						c-10.885,0.968-21.918,3.402-21.918,3.402c3.858-0.467,10.049,0.707,10.049,0.707c-27.139-0.348-67.492,11.862-70.092,11.797
						c-2.6-0.066-0.636-1.713-0.636-1.713c7.396-6.146,43.055-11.689,43.055-11.689c-26.173,1.711-57.459,13.248-57.459,13.248
						c7.71-5.234,28.33-10.934,28.33-10.934c-15.822,3.898-38.913,13.379-40.847,13.783c-1.932,0.402-1.115-0.594-1.115-0.594
						c1.336-1.381,7.112-3.809,12.553-5.891c-14.919,5.463-24.115,10.223-24.115,10.223c-3.212-2.074-6.438-4.004-9.667-5.804
						c2.785,3.073,1.543,4.412,1.543,4.412c-14.318-10.271-25.21-10.074-25.21-10.074c13.806,4.252,20.751,11.386,20.751,11.386
						C96.437,36.916,40.121,29.551,35.904,28.594c-4.218-0.955-0.983-1.382-0.983-1.382c7.517-2.015,32.404,0.769,32.404,0.769
						c-20.376-5.489-45.357-5.169-48.222-5.921c-1.816-0.476,0.871-1.314,3.085-1.863c-8.665,0.106-13.79,0.8-13.79,0.8
						l-0.141,3.602l4.583,6.854l97.502,32.453c2.485-4.947,9.593-8.781,14.808-10.084c3.333-0.834,7.14-0.018,10.5,0.773
						c3.809,0.898,5.576,2.46,8.572,4.966c2.254,1.884,4.258,4.128,5.866,6.618l111.032-29.133L260.086,25.342z"/>
				</g>
			</g>
			<g>
				<path style="fill:#E2D5C0;" d="M20.103,21.123c0,0,0.432-0.008,1.241-0.02c0.81-0.01,1.997-0.017,3.51,0.006
					c1.512,0.028,3.348,0.064,5.452,0.151c1.053,0.035,2.172,0.095,3.353,0.149c1.18,0.062,2.419,0.148,3.713,0.236
					c1.292,0.102,2.64,0.19,4.032,0.32c0.696,0.061,1.404,0.124,2.124,0.188c0.718,0.072,1.447,0.146,2.187,0.22
					c2.958,0.295,6.07,0.67,9.282,1.122c3.208,0.477,6.523,0.975,9.869,1.62c0.836,0.159,1.678,0.31,2.519,0.479
					c0.84,0.173,1.683,0.347,2.526,0.522c1.692,0.333,3.374,0.746,5.063,1.123c1.685,0.395,3.357,0.844,5.03,1.262
					c1.66,0.467,3.319,0.91,4.954,1.394c3.266,0.974,6.454,2.023,9.502,3.144c1.519,0.575,3.028,1.096,4.463,1.718
					c1.442,0.604,2.865,1.164,4.211,1.802c2.722,1.202,5.238,2.469,7.535,3.677c1.137,0.627,2.225,1.23,3.26,1.804
					c1.007,0.622,1.962,1.212,2.859,1.766c0.445,0.282,0.888,0.537,1.295,0.815c0.405,0.279,0.796,0.549,1.172,0.808
					c0.751,0.517,1.441,0.991,2.064,1.42c1.221,0.892,2.142,1.646,2.787,2.136c0.639,0.496,0.98,0.762,0.98,0.762
					s-0.352-0.251-1.014-0.718c-0.664-0.464-1.623-1.162-2.868-2.017c-0.635-0.408-1.338-0.857-2.104-1.348
					c-0.383-0.246-0.781-0.501-1.195-0.766c-0.413-0.264-0.863-0.503-1.315-0.77c-0.91-0.521-1.88-1.076-2.902-1.663
					c-1.043-0.547-2.139-1.122-3.283-1.723c-2.311-1.155-4.837-2.362-7.568-3.503c-1.35-0.607-2.778-1.135-4.221-1.705
					c-1.441-0.583-2.941-1.102-4.459-1.652c-0.379-0.137-0.76-0.273-1.143-0.412c-0.384-0.135-0.773-0.256-1.163-0.385
					c-0.778-0.256-1.563-0.514-2.352-0.771c-0.787-0.268-1.588-0.505-2.393-0.744c-0.805-0.242-1.613-0.486-2.424-0.73
					c-1.626-0.476-3.279-0.912-4.932-1.371c-1.666-0.41-3.332-0.85-5.01-1.239c-1.681-0.38-3.352-0.798-5.035-1.134
					c-0.84-0.178-1.678-0.354-2.514-0.53c-0.836-0.171-1.674-0.321-2.507-0.485c-3.33-0.645-6.625-1.198-9.817-1.699
					c-3.198-0.471-6.291-0.92-9.234-1.272c-0.735-0.089-1.46-0.177-2.175-0.263c-0.716-0.078-1.421-0.154-2.115-0.228
					c-1.385-0.158-2.728-0.274-4.016-0.402c-2.578-0.226-4.941-0.432-7.04-0.58c-2.097-0.154-3.928-0.25-5.436-0.328
					c-1.509-0.067-2.695-0.127-3.504-0.15C20.535,21.135,20.103,21.123,20.103,21.123z"/>
				<path style="fill:#E2D5C0;" d="M16.635,24.09c0,0,0.438-0.018,1.26-0.051c0.822-0.027,2.028-0.064,3.563-0.076
					c1.536-0.007,3.4-0.014,5.54,0.023c2.138,0.027,4.552,0.1,7.182,0.223c2.63,0.137,5.479,0.295,8.488,0.541
					c3.011,0.227,6.179,0.539,9.452,0.917c3.269,0.408,6.646,0.84,10.059,1.413c0.854,0.142,1.71,0.283,2.57,0.426
					c0.856,0.157,1.715,0.316,2.576,0.475c1.725,0.305,3.444,0.672,5.165,1.027c0.863,0.172,1.72,0.369,2.574,0.571
					c0.855,0.2,1.71,0.399,2.563,0.599c1.701,0.417,3.388,0.863,5.063,1.3c1.663,0.481,3.321,0.931,4.94,1.438
					c0.808,0.26,1.612,0.517,2.409,0.772c0.798,0.252,1.59,0.505,2.365,0.788c3.121,1.07,6.095,2.225,8.872,3.417
					c0.693,0.304,1.375,0.603,2.047,0.898c0.336,0.147,0.67,0.294,1.001,0.438c0.329,0.151,0.649,0.313,0.97,0.467
					c1.275,0.63,2.523,1.204,3.692,1.816c1.16,0.627,2.271,1.229,3.329,1.801c1.041,0.6,2.005,1.212,2.921,1.762
					c0.457,0.282,0.903,0.545,1.324,0.814c0.414,0.282,0.813,0.554,1.196,0.815c0.765,0.521,1.469,0.999,2.104,1.433
					c0.635,0.431,1.162,0.874,1.639,1.232c0.472,0.364,0.873,0.675,1.199,0.926c0.65,0.503,0.997,0.771,0.997,0.771
					s-0.359-0.252-1.03-0.726c-0.676-0.468-1.648-1.182-2.917-2.04c-0.647-0.41-1.364-0.865-2.144-1.359
					c-0.39-0.247-0.796-0.505-1.216-0.771c-0.428-0.255-0.882-0.504-1.345-0.767c-0.932-0.52-1.909-1.097-2.964-1.66
					c-1.064-0.545-2.183-1.118-3.35-1.718c-1.173-0.585-2.428-1.132-3.707-1.732c-0.322-0.147-0.643-0.302-0.972-0.444
					c-0.331-0.137-0.667-0.276-1.004-0.416c-0.674-0.281-1.358-0.565-2.053-0.854c-2.785-1.13-5.766-2.208-8.874-3.252
					c-0.772-0.275-1.563-0.516-2.358-0.761c-0.796-0.245-1.597-0.493-2.403-0.741c-0.802-0.261-1.628-0.464-2.447-0.7
					c-0.822-0.231-1.647-0.465-2.476-0.698c-1.668-0.428-3.346-0.865-5.04-1.276c-0.849-0.194-1.7-0.39-2.552-0.585
					c-0.851-0.199-1.704-0.392-2.562-0.563c-1.712-0.358-3.422-0.731-5.139-1.039c-0.856-0.16-1.711-0.321-2.563-0.481
					c-0.856-0.146-1.708-0.289-2.557-0.433c-1.697-0.299-3.389-0.539-5.058-0.803c-1.67-0.255-3.325-0.464-4.951-0.691
					c-3.259-0.398-6.41-0.783-9.407-1.068c-2.995-0.305-5.833-0.518-8.455-0.707c-2.623-0.164-5.028-0.317-7.162-0.416
					c-2.133-0.106-3.995-0.16-5.529-0.203c-1.534-0.031-2.739-0.063-3.561-0.066C17.073,24.092,16.635,24.09,16.635,24.09z"/>
				<path style="fill:#E2D5C0;" d="M57.862,30.904c0,0,0.262-0.012,0.753-0.013c0.492-0.007,1.211,0.001,2.127,0.028
					c0.458,0.02,0.965,0.045,1.516,0.071c0.552,0.023,1.149,0.058,1.786,0.11c0.637,0.049,1.314,0.101,2.029,0.156
					c0.713,0.077,1.462,0.158,2.243,0.244c0.784,0.077,1.594,0.19,2.434,0.31c0.84,0.121,1.709,0.238,2.599,0.383
					c0.887,0.158,1.799,0.319,2.731,0.483c0.465,0.085,0.939,0.161,1.412,0.259c0.471,0.104,0.948,0.205,1.429,0.311
					c0.961,0.209,1.938,0.42,2.928,0.635c0.983,0.242,1.975,0.499,2.975,0.76c2.009,0.487,4.009,1.127,6.021,1.723
					c0.501,0.156,1.007,0.299,1.503,0.469c0.494,0.172,0.988,0.346,1.482,0.518c0.987,0.346,1.969,0.689,2.945,1.029
					c0.982,0.321,1.921,0.734,2.863,1.106c0.939,0.38,1.866,0.754,2.778,1.122c0.918,0.352,1.792,0.771,2.651,1.166
					c0.859,0.398,1.7,0.787,2.518,1.166c1.652,0.721,3.14,1.56,4.532,2.286c0.696,0.368,1.36,0.72,1.994,1.056
					c0.315,0.17,0.622,0.334,0.92,0.495c0.297,0.163,0.575,0.343,0.851,0.505c1.092,0.659,2.045,1.234,2.83,1.707
					c0.786,0.471,1.395,0.854,1.813,1.109c0.417,0.257,0.64,0.395,0.64,0.395s-0.232-0.12-0.668-0.347
					c-0.434-0.228-1.077-0.553-1.884-0.985c-0.807-0.428-1.788-0.949-2.912-1.546c-0.282-0.146-0.567-0.309-0.873-0.456
					c-0.306-0.144-0.622-0.29-0.944-0.442c-0.644-0.308-1.321-0.631-2.028-0.969c-1.417-0.666-2.926-1.439-4.587-2.117
					c-0.824-0.353-1.669-0.716-2.534-1.087c-0.868-0.364-1.738-0.775-2.658-1.107c-0.913-0.349-1.84-0.705-2.78-1.066
					c-0.469-0.18-0.941-0.361-1.416-0.543c-0.471-0.193-0.954-0.357-1.44-0.523c-0.971-0.333-1.949-0.668-2.931-1.004
					c-0.491-0.17-0.983-0.338-1.475-0.507c-0.493-0.168-0.996-0.304-1.494-0.458c-1.995-0.603-3.978-1.25-5.97-1.744
					c-0.991-0.266-1.974-0.53-2.946-0.791c-0.978-0.229-1.946-0.457-2.897-0.681c-0.476-0.11-0.947-0.222-1.415-0.331
					c-0.468-0.105-0.936-0.192-1.396-0.291c-0.922-0.189-1.824-0.376-2.701-0.557c-0.879-0.17-1.741-0.307-2.57-0.459
					c-0.831-0.151-1.632-0.297-2.408-0.404c-0.774-0.117-1.516-0.23-2.221-0.337c-0.708-0.093-1.379-0.181-2.01-0.264
					c-0.63-0.088-1.222-0.155-1.771-0.208c-0.548-0.056-1.051-0.107-1.506-0.154c-0.911-0.069-1.627-0.145-2.116-0.168
					C58.125,30.912,57.862,30.904,57.862,30.904z"/>
				<path style="fill:#E2D5C0;" d="M59.272,35.521c0,0,0.245-0.013,0.702-0.036c0.458-0.018,1.13-0.052,1.986-0.053
					c0.856-0.011,1.895,0.001,3.086,0.021c1.192,0.03,2.539,0.066,4.003,0.168c1.466,0.088,3.053,0.215,4.726,0.394
					c1.674,0.178,3.438,0.389,5.253,0.672c0.91,0.131,1.829,0.299,2.762,0.45c0.931,0.172,1.874,0.337,2.817,0.538
					c0.944,0.203,1.898,0.393,2.848,0.623c0.475,0.111,0.952,0.223,1.429,0.334l1.425,0.364c1.898,0.491,3.779,1.056,5.619,1.642
					c0.922,0.288,1.823,0.618,2.717,0.926c0.89,0.322,1.761,0.665,2.622,0.988c0.854,0.342,1.689,0.69,2.505,1.033
					c0.811,0.354,1.594,0.724,2.363,1.07c1.521,0.726,2.948,1.437,4.228,2.158c1.304,0.682,2.437,1.418,3.462,2.025
					c1,0.654,1.871,1.222,2.579,1.701c0.697,0.497,1.235,0.901,1.607,1.169c0.369,0.271,0.566,0.415,0.566,0.415
					s-0.208-0.128-0.598-0.369c-0.388-0.242-0.964-0.59-1.684-1.048c-0.733-0.438-1.633-0.95-2.663-1.541
					c-0.525-0.277-1.083-0.572-1.672-0.882c-0.297-0.153-0.592-0.324-0.905-0.478c-0.313-0.155-0.634-0.313-0.962-0.474
					c-1.302-0.66-2.745-1.306-4.271-1.984c-0.772-0.321-1.559-0.663-2.373-0.989c-0.818-0.317-1.654-0.642-2.503-0.971
					c-0.859-0.304-1.727-0.628-2.615-0.931c-0.445-0.146-0.893-0.293-1.345-0.44c-0.449-0.149-0.898-0.308-1.357-0.442
					c-1.827-0.57-3.693-1.117-5.578-1.595l-1.41-0.37c-0.473-0.113-0.944-0.227-1.415-0.34c-0.939-0.234-1.885-0.428-2.819-0.635
					c-0.936-0.2-1.869-0.38-2.788-0.57c-0.923-0.167-1.832-0.35-2.733-0.496c-1.799-0.307-3.543-0.578-5.201-0.804
					c-1.658-0.221-3.23-0.415-4.684-0.566c-1.454-0.153-2.79-0.271-3.974-0.372c-1.185-0.09-2.219-0.16-3.071-0.2
					c-0.854-0.04-1.524-0.076-1.982-0.089C59.517,35.527,59.272,35.521,59.272,35.521z"/>
				<path style="fill:#E2D5C0;" d="M67.461,40.479c0,0,0.792-0.053,2.184-0.06c1.391-0.012,3.379,0.021,5.76,0.177
					c1.191,0.075,2.48,0.178,3.84,0.324c1.36,0.143,2.794,0.316,4.269,0.541c1.476,0.225,3,0.467,4.537,0.778
					c0.769,0.155,1.544,0.31,2.318,0.487c0.776,0.167,1.551,0.351,2.325,0.54c1.547,0.384,3.081,0.818,4.585,1.267
					c0.752,0.224,1.49,0.472,2.222,0.709c0.725,0.256,1.442,0.507,2.147,0.754c0.698,0.268,1.384,0.529,2.056,0.787
					c0.664,0.276,1.313,0.549,1.944,0.813c1.255,0.549,2.432,1.089,3.495,1.635c1.078,0.515,2.024,1.071,2.878,1.527
					c0.836,0.491,1.563,0.923,2.155,1.289c1.162,0.764,1.826,1.2,1.826,1.2s-0.701-0.373-1.926-1.025
					c-0.619-0.309-1.372-0.687-2.235-1.118c-0.438-0.202-0.903-0.419-1.393-0.646c-0.488-0.232-1.007-0.464-1.552-0.697
					c-1.083-0.482-2.276-0.958-3.535-1.462c-0.636-0.238-1.288-0.482-1.954-0.732c-0.672-0.237-1.359-0.479-2.056-0.725
					c-0.703-0.229-1.419-0.462-2.144-0.698c-0.728-0.222-1.466-0.443-2.21-0.669c-1.492-0.432-3.014-0.85-4.548-1.221
					c-0.766-0.193-1.533-0.382-2.3-0.553c-0.765-0.181-1.533-0.34-2.293-0.499c-0.761-0.162-1.52-0.302-2.267-0.456
					c-0.749-0.139-1.488-0.279-2.218-0.403c-1.461-0.246-2.874-0.481-4.22-0.671c-1.346-0.19-2.621-0.359-3.8-0.496
					C70.636,40.621,67.461,40.479,67.461,40.479z"/>
				<path style="fill:#E2D5C0;" d="M234.868,25.597c0,0-0.416,0.019-1.193,0.058c-0.777,0.041-1.916,0.117-3.366,0.216
					c-1.449,0.097-3.206,0.24-5.222,0.421c-2.014,0.189-4.285,0.415-6.76,0.684c-1.236,0.129-2.523,0.292-3.855,0.445
					c-1.332,0.175-2.708,0.335-4.119,0.537c-1.413,0.193-2.863,0.398-4.341,0.627c-1.48,0.229-2.99,0.465-4.527,0.703
					c-1.535,0.245-3.091,0.52-4.668,0.791c-1.571,0.298-3.169,0.57-4.768,0.887c-1.604,0.313-3.219,0.622-4.832,0.973
					c-0.808,0.171-1.617,0.342-2.428,0.514l-2.424,0.55c-3.235,0.721-6.453,1.522-9.61,2.351c-1.577,0.416-3.132,0.864-4.677,1.28
					c-1.535,0.45-3.051,0.896-4.542,1.333c-1.481,0.467-2.938,0.926-4.365,1.375c-1.423,0.463-2.808,0.939-4.157,1.39
					c-2.689,0.944-5.227,1.854-7.537,2.776c-0.579,0.226-1.146,0.447-1.701,0.662c-0.555,0.215-1.086,0.453-1.612,0.663
					c-1.049,0.433-2.044,0.841-2.979,1.226c-1.851,0.816-3.464,1.528-4.786,2.13c-2.626,1.244-4.127,1.955-4.127,1.955
					s1.469-0.775,4.04-2.134c1.302-0.647,2.893-1.415,4.717-2.297c1.851-0.824,3.915-1.814,6.233-2.737
					c2.298-0.974,4.823-1.939,7.501-2.944c1.346-0.481,2.726-0.986,4.144-1.481c1.421-0.479,2.88-0.958,4.364-1.439
					c1.491-0.456,3.008-0.92,4.544-1.389c1.544-0.438,3.104-0.898,4.686-1.318c3.166-0.843,6.393-1.66,9.638-2.393l2.436-0.545
					c0.814-0.168,1.627-0.337,2.439-0.506c1.62-0.346,3.243-0.65,4.852-0.958c1.606-0.317,3.211-0.575,4.793-0.854
					c1.583-0.254,3.148-0.514,4.69-0.743c3.084-0.468,6.073-0.854,8.913-1.179c1.419-0.174,2.803-0.306,4.139-0.453
					c1.339-0.126,2.63-0.26,3.874-0.364c2.482-0.229,4.764-0.373,6.786-0.493c2.023-0.11,3.786-0.193,5.24-0.24
					c1.452-0.056,2.597-0.064,3.374-0.073C234.452,25.597,234.868,25.597,234.868,25.597z"/>
				<path style="fill:#E2D5C0;" d="M242.28,27.65c0,0-0.43,0.014-1.238,0.041c-0.807,0.029-1.992,0.09-3.496,0.167
					c-1.507,0.077-3.335,0.192-5.429,0.348c-2.095,0.159-4.454,0.36-7.028,0.593c-2.572,0.24-5.357,0.526-8.295,0.881
					c-2.941,0.34-6.031,0.774-9.229,1.216c-1.598,0.236-3.221,0.475-4.862,0.737c-1.638,0.274-3.299,0.528-4.968,0.826
					c-0.834,0.146-1.672,0.292-2.513,0.438c-0.839,0.158-1.679,0.316-2.521,0.473c-1.688,0.309-3.372,0.659-5.059,1.003
					c-1.69,0.326-3.366,0.718-5.044,1.072c-1.674,0.368-3.333,0.772-4.984,1.152c-1.643,0.409-3.273,0.815-4.886,1.218
					c-1.604,0.431-3.188,0.854-4.747,1.271c-1.551,0.445-3.075,0.883-4.568,1.311c-1.485,0.453-2.939,0.896-4.354,1.327
					c-2.816,0.907-5.477,1.775-7.904,2.657c-0.609,0.216-1.205,0.426-1.787,0.632c-0.578,0.217-1.144,0.431-1.695,0.638
					c-1.104,0.412-2.15,0.803-3.133,1.169c-1.945,0.787-3.65,1.458-5.042,2.038c-2.773,1.188-4.358,1.867-4.358,1.867
					s1.556-0.745,4.279-2.049c1.373-0.627,3.055-1.354,4.979-2.208c0.973-0.399,2.008-0.826,3.099-1.274
					c0.547-0.222,1.108-0.448,1.683-0.682c0.58-0.217,1.173-0.44,1.779-0.668c2.415-0.935,5.065-1.859,7.871-2.825
					c1.41-0.462,2.859-0.935,4.342-1.42c1.491-0.448,3.016-0.907,4.566-1.374c1.561-0.436,3.146-0.878,4.75-1.326
					c1.613-0.42,3.245-0.845,4.895-1.256c1.656-0.389,3.319-0.8,4.998-1.175c1.682-0.361,3.363-0.761,5.058-1.092
					c1.694-0.34,3.386-0.686,5.079-0.987c0.846-0.156,1.69-0.311,2.531-0.467c0.845-0.145,1.686-0.287,2.523-0.43
					c3.35-0.576,6.663-1.044,9.871-1.482c3.209-0.422,6.317-0.782,9.271-1.065c2.951-0.296,5.747-0.525,8.328-0.715
					c5.164-0.377,9.479-0.504,12.496-0.57c1.51-0.034,2.695-0.025,3.504-0.024C241.851,27.646,242.28,27.65,242.28,27.65z"/>
				<path style="fill:#E2D5C0;" d="M238.143,30.261c0,0-0.398,0.021-1.147,0.061c-0.748,0.044-1.843,0.12-3.236,0.22
					c-1.395,0.1-3.086,0.24-5.023,0.422c-1.938,0.183-4.121,0.418-6.5,0.673c-2.381,0.271-4.956,0.577-7.674,0.956
					c-2.717,0.365-5.575,0.814-8.531,1.273c-2.953,0.48-5.999,1.008-9.084,1.592c-3.09,0.57-6.213,1.221-9.33,1.899
					c-1.559,0.337-3.111,0.702-4.66,1.05c-1.545,0.377-3.082,0.75-4.607,1.123c-1.52,0.396-3.027,0.787-4.516,1.176
					c-1.482,0.411-2.953,0.797-4.39,1.214c-1.435,0.423-2.846,0.837-4.226,1.242c-1.376,0.424-2.723,0.838-4.033,1.241
					c-1.302,0.429-2.568,0.847-3.793,1.25c-1.227,0.404-2.396,0.836-3.527,1.229c-0.564,0.2-1.115,0.396-1.656,0.586
					c-0.536,0.201-1.06,0.397-1.57,0.59c-1.023,0.378-1.994,0.737-2.907,1.075c-1.807,0.72-3.392,1.329-4.684,1.862
					c-2.58,1.078-4.054,1.693-4.054,1.693s1.445-0.682,3.975-1.876c1.273-0.578,2.837-1.245,4.621-2.03
					c0.902-0.371,1.86-0.767,2.872-1.183c0.507-0.206,1.027-0.415,1.559-0.631c0.537-0.203,1.086-0.411,1.647-0.626
					c1.124-0.417,2.288-0.875,3.507-1.308c1.22-0.432,2.482-0.878,3.778-1.337c1.305-0.434,2.647-0.877,4.017-1.333
					c1.373-0.45,2.79-0.861,4.224-1.305c1.437-0.435,2.908-0.84,4.391-1.269c1.486-0.421,3-0.811,4.524-1.214
					c1.529-0.378,3.07-0.761,4.618-1.144c1.555-0.356,3.11-0.729,4.675-1.069c3.131-0.671,6.268-1.313,9.367-1.872
					c3.096-0.583,6.162-1.054,9.127-1.512c5.936-0.881,11.505-1.477,16.283-1.912c4.779-0.428,8.775-0.615,11.57-0.725
					c1.398-0.057,2.498-0.066,3.247-0.078C237.743,30.264,238.143,30.261,238.143,30.261z"/>
				<path style="fill:#E2D5C0;" d="M215.783,35.463c0,0-1.184,0.232-3.255,0.641c-1.035,0.207-2.293,0.457-3.733,0.744
					c-1.44,0.297-3.065,0.63-4.837,0.994c-1.77,0.373-3.686,0.777-5.714,1.203c-2.026,0.433-4.161,0.895-6.368,1.384
					c-1.102,0.245-2.225,0.495-3.359,0.747c-1.133,0.26-2.279,0.523-3.437,0.789c-2.317,0.51-4.653,1.104-6.997,1.658
					c-2.344,0.561-4.676,1.166-6.979,1.738c-2.291,0.611-4.546,1.212-6.729,1.794c-2.172,0.618-4.271,1.218-6.262,1.786
					c-1.98,0.604-3.854,1.176-5.582,1.703c-1.714,0.569-3.287,1.091-4.68,1.553c-1.405,0.438-2.591,0.922-3.584,1.277
					c-0.992,0.362-1.771,0.646-2.303,0.84c-0.531,0.193-0.816,0.295-0.816,0.295s0.277-0.119,0.795-0.346
					c0.521-0.225,1.281-0.554,2.252-0.973c0.976-0.404,2.141-0.945,3.525-1.449c1.373-0.525,2.924-1.122,4.625-1.751
					c1.717-0.581,3.575-1.211,5.543-1.876c1.977-0.632,4.074-1.266,6.242-1.922c2.177-0.621,4.43-1.258,6.725-1.883
					c2.305-0.584,4.639-1.205,6.986-1.775c2.352-0.545,4.697-1.127,7.02-1.628c2.32-0.521,4.609-1.005,6.828-1.452
					c2.215-0.467,4.365-0.867,6.406-1.252c2.035-0.396,3.971-0.717,5.754-1.033c3.569-0.609,6.555-1.053,8.644-1.361
					c1.044-0.157,1.868-0.258,2.43-0.334C215.484,35.502,215.783,35.463,215.783,35.463z"/>
			</g>
		</g>
		<g>
			<path style="fill:#D43147;" d="M262.568,29.559c-0.119-0.588-0.347-1.094-0.651-1.585c-0.245-0.173-0.508-0.318-0.787-0.431
				L142.945,53.184c0,0-16.073,20.479-28.736-1.851L7.634,22.852c-0.424,0.329-0.778,0.729-0.957,1.191l0.002,0.134l38.83,123.732
				l97.665,31.753c0,0,6.357,6.939,17.595,1.949l106.629-30.033L262.568,29.559z"/>
			<path style="fill:#D43147;" d="M6.645,24.086l38.812,125.858l97.665,31.753c0,0,8.486,8.646,18.212-0.156l106.012-27.928
				l-4.919-124.328L142.894,55.218c0,0-16.072,20.481-28.736-1.85L6.645,24.086z"/>
			<g>
				<polygon style="fill:#912131;" points="262.427,29.285 143.403,55.107 143.439,55.301 161.334,181.541 267.346,153.613 				"/>
				<path style="opacity:0.5;fill:#912131;" d="M143.403,55.107l-0.51,0.11c0,0-15.832,20.169-28.452-1.364l28.68,127.844
					c0,0,8.486,8.646,18.212-0.156l-17.895-126.24L143.403,55.107z"/>
			</g>
		</g>
		<g>
			<g>
				<path style="fill:#720B1C;" d="M114.413,55.752c0,0-1.923-4.46,8.633-5.889c10.556-1.429,18.266,2.329,20.393,5.438l0.896,4.773
					l-27.898,2.855L114.413,55.752z"/>
				<path style="fill:#DCA385;" d="M114.357,57.957c0,0-1.923-4.461,8.633-5.89c10.557-1.429,18.265,2.329,20.393,5.438l0.898,4.773
					l-27.899,2.856L114.357,57.957z"/>
				<path style="fill:#858075;" d="M114.331,58.975c0,0-1.923-4.461,8.633-5.891c10.557-1.428,18.266,2.33,20.393,5.438l0.897,4.774
					l-27.899,2.855L114.331,58.975z"/>
				<path style="fill:#858075;" d="M135.163,64.227l9.091-0.93l-0.897-4.774c-1.336-1.953-4.879-4.162-9.945-5.181
					C133.945,56.979,134.552,60.603,135.163,64.227z"/>
				<path style="fill:#858075;" d="M121.108,53.391c-8.464,1.67-6.777,5.584-6.777,5.584l2.023,7.178l7.521-0.771
					C122.909,61.397,122.097,57.371,121.108,53.391z"/>
			</g>
			<path style="opacity:0.6;fill:#B7283C;" d="M262.427,29.285L142.894,55.218c0,0-16.072,20.481-28.736-1.85L6.645,24.086
				l38.812,125.858l97.665,31.753c0,0,8.486,8.646,18.212-0.156l106.012-27.928L262.427,29.285z M58.58,125.815
				C41.165,103.316,16.166,45.332,13.972,38.15c-2.192-7.182,2.224-7.409,2.224-7.409s82.954,20.768,88.659,23.288
				c5.705,2.52,6.473,12.381,6.473,12.381s13.967,64.83,15.597,80.82C128.555,163.222,75.994,148.314,58.58,125.815z
				 M140.626,151.085c-2.52,1.294-4.58-6.677-4.564-7.355c0.018-0.679-16.495-72.135-16.403-75.752
				c0.091-3.617,5.46-1.219,5.46-1.219c5.81,2.861,5.904,8.066,5.904,8.066s13.259,65.944,13.126,71.145
				C144.019,151.171,140.626,151.085,140.626,151.085z M257.811,97.725c-8.092,24.681-62.602,42.075-74.914,45.836
				c-12.312,3.76-13.156-7.574-13.156-7.574s-10.603-63.613-10.844-71.99c-0.24-8.377,11.33-9.668,11.33-9.668l74.395-16.438
				l9.31-1.348c4.279,0.787,3.7,5.75,3.7,5.75s1.913,40.544,2.263,44.625C260.243,90.999,257.811,97.725,257.811,97.725z"/>
			<g>
				<path style="fill:none;" d="M140.626,151.085c0,0,3.393,0.086,3.523-5.114c0.133-5.2-13.126-71.145-13.126-71.145
					s-0.094-5.205-5.904-8.066c0,0-5.368-2.399-5.46,1.219c-0.092,3.617,16.42,75.073,16.403,75.752
					C136.046,144.408,138.107,152.379,140.626,151.085z"/>
				<path style="fill:none;" d="M169.741,135.986c0,0,0.844,11.334,13.156,7.574c12.312-3.761,66.822-21.155,74.914-45.836
					c0,0,2.432-6.726,2.084-10.807c-0.35-4.081-2.263-44.625-2.263-44.625s0.579-4.963-3.7-5.75l-9.31,1.348l-74.395,16.438
					c0,0-11.57,1.291-11.33,9.668C159.138,72.373,169.741,135.986,169.741,135.986z"/>
				<path style="fill:none;" d="M126.924,147.23c-1.63-15.99-15.597-80.82-15.597-80.82s-0.768-9.861-6.473-12.381
					c-5.705-2.521-88.659-23.288-88.659-23.288s-4.416,0.228-2.224,7.409c2.194,7.182,27.193,65.166,44.608,87.665
					C75.994,148.314,128.555,163.222,126.924,147.23z"/>
				<path style="fill:#9A1E30;" d="M262.17,32.906c0,0,0.983,95.043,0.133,101.808c-0.851,6.767-15.884,10.796-15.884,10.796
					s-72.861,22.925-78.654,23.796c-5.789,0.871-5.541-8.964-5.541-8.964s-11.6-91.239-12.089-98.718
					c-0.362-5.53,3.47-8.168,5.491-9.169l-12.732,2.763c0,0-12.121,15.44-23.604,4.879c2.657,4.571,10.89,5.108,14.455,5.524
					c3.721,0.434,3.61,4.842,3.61,4.842s16.696,91.03,17.177,98.848c0.48,7.816-3.581,7.374-3.581,7.374
					c-6.094,1.69-8.978-5.857-8.978-5.857l-21.814-91.299c0,0,16.815,86.281,16.695,91.028c-0.121,4.748-6.495,1.872-6.495,1.872
					S58.3,150.242,53.926,148.773c-4.375-1.468-6.654-5.259-6.654-5.259L27.517,91.772l17.939,58.172l97.665,31.753
					c0,0,8.486,8.646,18.212-0.156l106.012-27.928L262.564,32.78L262.17,32.906z"/>
			</g>
			<path style="fill:#D43147;" d="M161.278,181.482c-0.081-0.002-0.151-0.063-0.163-0.146l-18.267-125.19
				c-0.014-0.092,0.051-0.178,0.142-0.191c0.096-0.014,0.18,0.051,0.193,0.143l18.267,125.189c0.013,0.094-0.052,0.18-0.144,0.193
				C161.298,181.482,161.288,181.482,161.278,181.482z"/>
			<path style="fill:#D43147;" d="M143.337,181.737c-0.075-0.001-0.143-0.056-0.16-0.132l-28.965-128.33
				c-0.02-0.091,0.037-0.182,0.128-0.201c0.09-0.021,0.183,0.036,0.203,0.127l28.965,128.33c0.021,0.091-0.037,0.182-0.128,0.201
				C143.366,181.736,143.351,181.737,143.337,181.737z"/>
		</g>
	</g>
	<g>
		<path style="fill:#E2D5C0;" d="M107.101,33.586c-17.72-10.635-47.813-22.143-94.988-22.021l0.2,1.061
			C22.285,12.356,69.655,12.304,107.101,33.586z"/>
	</g>
</g>
</svg>
